<svg xmlns="http://www.w3.org/2000/svg" x="0px" y="0px"
width="24" height="24"
viewBox="0 0 172 172"
style=" fill:#000000;"><g transform="translate(8.944,8.944) scale(0.896,0.896)"><g fill="none" fill-rule="nonzero" stroke="none" stroke-width="none" stroke-linecap="butt" stroke-linejoin="none" stroke-miterlimit="10" stroke-dasharray="" stroke-dashoffset="0" font-family="none" font-weight="none" font-size="none" text-anchor="none" style="mix-blend-mode: normal"><g fill="#ffffff" stroke="#ffffff" stroke-width="20" stroke-linejoin="round"><path d="M89.54033,26.80333l34.15633,51.24167c3.21067,4.816 3.21067,11.08683 0,15.90283l-34.15633,51.24167c-2.2145,3.31817 -5.94117,5.3105 -9.92583,5.3105c-9.5245,0 -15.2005,-10.61383 -9.91867,-18.54017l30.6375,-45.95983l-30.6375,-45.95983c-5.28183,-7.92633 0.39417,-18.54017 9.91867,-18.54017c3.99183,0 7.71133,1.99233 9.92583,5.30333z"></path></g><path d="M0,172v-172h172v172z" fill="none" stroke="none" stroke-width="1" stroke-linejoin="miter"></path><g fill="#ffffff" stroke="none" stroke-width="1" stroke-linejoin="miter"><path d="M79.6145,21.5v0c-9.5245,0 -15.2005,10.61383 -9.91867,18.54017l30.6375,45.95983l-30.6375,45.95983c-5.28183,7.92633 0.39417,18.54017 9.91867,18.54017v0c3.98467,0 7.71133,-1.99233 9.92583,-5.3105l34.15633,-51.24167c3.21067,-4.816 3.21067,-11.08683 0,-15.90283l-34.15633,-51.24167c-2.2145,-3.311 -5.934,-5.30333 -9.92583,-5.30333z"></path></g><path d="" fill="none" stroke="none" stroke-width="1" stroke-linejoin="miter"></path></g></g></svg>